/vscmnt/brussel_pixiu_data/_data_brussel/112/vsc11236/PredSimResults/SUBJ06mtu3D/worker5.mot
version=1
nRows=10
nColumns=50
inDegrees=yes
endheader
                time	         pelvis_tilt	         pelvis_list	     pelvis_rotation	           pelvis_tx	           pelvis_ty	           pelvis_tz	       hip_flexion_r	     hip_adduction_r	      hip_rotation_r	        knee_angle_r	       ankle_angle_r	         mtp_angle_r	       hip_flexion_l	     hip_adduction_l	      hip_rotation_l	        knee_angle_l	       ankle_angle_l	         mtp_angle_l	    lumbar_extension	      lumbar_bending	     lumbar_rotation	 ercspn_r/activation	 intobl_r/activation	 extobl_r/activation	    abd_r/activation	    add_r/activation	hamstrings_r/activation	bifemsh_r/activation	glut_max_r/activation	iliopsoas_r/activation	rect_fem_r/activation	  vasti_r/activation	gastroc_r/activation	 soleus_r/activation	tib_ant_r/activation	 ercspn_l/activation	 intobl_l/activation	 extobl_l/activation	    abd_l/activation	    add_l/activation	hamstrings_l/activation	bifemsh_l/activation	glut_max_l/activation	iliopsoas_l/activation	rect_fem_l/activation	  vasti_l/activation	gastroc_l/activation	 soleus_l/activation	tib_ant_l/activation	
          1.21692329	         -4.87161194	          0.45266087	          2.84808108	          1.36295408	          0.93145264	         -0.01071999	         32.80938849	         -2.71960898	         -7.12267218	        -11.35832458	          0.20679183	          0.21881766	        -10.98421374	          0.29301491	        -10.62883898	        -10.78113420	          9.26305725	         31.08767781	         -7.49719634	         -1.62257627	         -6.95645885	          0.21667808	          0.15153369	          0.01000001	          0.01000002	          0.24034775	          0.07433395	          0.16575830	          0.01830959	          0.11371536	          0.01000000	          0.01000000	          0.01202831	          0.01000000	          0.46004966	          0.10786912	          0.00999999	          0.01000000	          0.08462410	          0.01000006	          0.01037223	          0.16028517	          0.02093167	          0.59293536	          0.02093201	          0.01000001	          0.25225430	          0.40737303	          0.02295435	
          1.22909252	         -4.96712209	          0.58389767	          2.83028008	          1.37920098	          0.92962075	         -0.00959274	         33.02815399	         -2.59650624	         -7.36272164	        -12.96098970	         -0.01015355	          0.22588774	        -11.35911235	          0.22786303	        -11.04138043	        -11.71384554	          8.34781026	         32.94009872	         -7.21172750	         -1.37823092	         -7.48776741	          0.20254217	          0.12598196	          0.01000001	          0.00999999	          0.43168145	          0.08377450	          0.13780802	          0.11708322	          0.09454059	          0.01000171	          0.01000000	          0.01000011	          0.01208842	          0.48034770	          0.18345925	          0.00999999	          0.01000000	          0.07035472	          0.01000022	          0.01000039	          0.13325778	          0.01740217	          0.61273809	          0.01740250	          0.01150419	          0.21595826	          0.38888066	          0.01908377	
          1.24126175	         -5.03536023	          0.65920787	          2.81289492	          1.39596794	          0.92797388	         -0.00843747	         32.94875707	         -2.53425240	         -7.21326080	        -14.49910721	         -0.28093445	          0.19904287	        -11.60679147	          0.05364244	        -11.42155097	        -12.97314580	          7.32563654	         34.84173662	         -6.89249729	         -1.06185377	         -7.98568809	          0.16838935	          0.10473879	          0.01000000	          0.01000001	          0.35889100	          0.09243390	          0.11457073	          0.14800435	          0.07859908	          0.01000000	          0.01000000	          0.01446776	          0.01446771	          0.52169531	          0.17279234	          0.00999999	          0.01000000	          0.05849145	          0.01202788	          0.01455810	          0.11078778	          0.01446781	          0.61329066	          0.01446809	          0.01202819	          0.17954321	          0.36295822	          0.01586585	
          1.25343099	         -5.07974772	          0.67811083	          2.78090211	          1.41303404	          0.92656725	         -0.00715662	         32.66439987	         -2.47301093	         -7.09138279	        -15.80765687	         -0.53955364	          0.18851454	        -11.63902055	         -0.24695137	        -11.78947908	        -14.68771975	          6.18094625	         36.79275193	         -6.56489672	         -0.68771113	         -8.43376632	          0.17819358	          0.08707765	          0.01000000	          0.06976748	          0.34047734	          0.09406561	          0.09525174	          0.14374769	          0.06534564	          0.01000000	          0.02164198	          0.01202820	          0.01202815	          0.58637902	          0.16289027	          0.00999999	          0.01000000	          0.04862858	          0.01000003	          0.01210340	          0.10399802	          0.01202824	          0.61460222	          0.01202848	          0.01000000	          0.14926850	          0.33681083	          0.01319054	
          1.26560022	         -5.10112414	          0.67209411	          2.72516140	          1.43012823	          0.92550712	         -0.00573785	         32.30818915	         -2.40828331	         -7.10936214	        -17.01162734	         -0.85295475	          0.16076017	        -11.36860221	         -0.65485301	        -12.15343016	        -16.97331733	          4.84402725	         38.79038484	         -6.26346080	         -0.29271117	         -8.81982849	          0.17680425	          0.07239455	          0.01000000	          0.11483729	          0.32763519	          0.09457929	          0.07919032	          0.16864164	          0.05432701	          0.01000000	          0.07636415	          0.01000001	          0.00999999	          0.64947991	          0.19673474	          0.00999999	          0.01000000	          0.04042879	          0.01000005	          0.01006278	          0.08764415	          0.01000003	          0.55840686	          0.01000026	          0.00999999	          0.12409873	          0.28208394	          0.01096634	
          1.27776945	         -5.10170911	          0.62119344	          2.65226909	          1.44703914	          0.92497504	         -0.00420255	         31.92096321	         -2.30327231	         -7.19064905	        -18.22504056	         -0.81864290	          0.13420101	        -10.74407808	         -1.20223987	        -12.50644373	        -19.86746204	          3.23540965	         40.72825019	         -6.00624180	          0.14432193	         -9.14327087	          0.16874958	          0.06018733	          0.01000000	          0.16705518	          0.27440724	          0.09279030	          0.06583720	          0.14936253	          0.04516635	          0.01000000	          0.16785309	          0.01000000	          0.00999999	          0.62559218	          0.24457329	          0.00999999	          0.01000000	          0.03361165	          0.01000006	          0.01000152	          0.08469909	          0.00999999	          0.46424787	          0.01000002	          0.00999999	          0.10317310	          0.23451872	          0.00999999	
          1.28993868	         -5.08604639	          0.51813239	          2.57032686	          1.46359572	          0.92518906	         -0.00257543	         31.45037577	         -2.11934529	         -7.22279145	        -19.38651475	         -0.11942060	          0.23218682	         -9.75818487	         -1.89719521	        -12.84282577	        -23.31141985	          1.27873642	         42.35864004	         -5.80286905	          0.62647071	         -9.41080404	          0.14860999	          0.05003849	          0.01000000	          0.20892828	          0.22919163	          0.08597158	          0.05473569	          0.12417692	          0.03755036	          0.01000000	          0.24733958	          0.01000002	          0.01000000	          0.52010438	          0.28843557	          0.01000000	          0.01000000	          0.02794403	          0.06599483	          0.07812320	          0.09969109	          0.00999999	          0.38596603	          0.01000001	          0.00999999	          0.08577597	          0.19497399	          0.01000000	
          1.30210792	         -5.06010587	          0.38481901	          2.48115999	          1.47965968	          0.92632937	         -0.00089445	         30.81001968	         -1.86418702	         -7.19547966	        -20.28727927	          1.04292035	          0.54690979	         -8.42241067	         -2.71398161	        -13.17734653	        -27.25049677	         -0.85024132	         42.96491611	         -5.66005310	          1.12489000	         -9.62770396	          0.14150051	          0.04160096	          0.01000001	          0.22555609	          0.19809434	          0.08348003	          0.04550612	          0.10323812	          0.03121859	          0.01000000	          0.28033541	          0.01000001	          0.00999999	          0.43240398	          0.30066756	          0.01000000	          0.01000000	          0.02323209	          0.15213823	          0.07115223	          0.08792538	          0.00999999	          0.32088413	          0.01000001	          0.00999999	          0.07131236	          0.16209732	          0.00999999	
          1.31427715	         -5.02837917	          0.26033762	          2.38057114	          1.49519635	          0.92840947	          0.00079591	         29.94749052	         -1.58147927	         -7.15187165	        -20.73494554	          2.16452443	          0.97864505	         -6.77912687	         -3.60395722	        -13.50312199	        -31.55189098	         -3.19132515	         42.35739982	         -5.57602846	          1.59580393	         -9.79172504	          0.13255808	          0.03458618	          0.01000001	          0.22439123	          0.17416524	          0.08420627	          0.03783285	          0.08583003	          0.02595449	          0.01000000	          0.28044326	          0.01000001	          0.00999999	          0.35949171	          0.29936079	          0.01000000	          0.01000000	          0.01931467	          0.19840177	          0.07892727	          0.11157193	          0.00999999	          0.26677640	          0.01000000	          0.00999999	          0.05928762	          0.13476434	          0.01000000	
          1.32644638	         -4.99250296	          0.17462382	          2.26686372	          1.51022323	          0.93126885	          0.00246175	         28.88785312	         -1.31046554	         -7.09809916	        -20.74063852	          3.05852755	          1.42134907	         -4.89846694	         -4.52193218	        -13.80724549	        -36.03711392	         -5.68723860	         40.40885134	         -5.54691846	          2.00641689	         -9.90186049	          0.11020607	          0.02875423	          0.01000001	          0.21449846	          0.16011581	          0.08626088	          0.03145345	          0.07135732	          0.02157802	          0.01000000	          0.25384154	          0.01000001	          0.00999999	          0.31148411	          0.30138895	          0.01000001	          0.01000001	          0.01605782	          0.19387899	          0.09022777	          0.10017628	          0.00999999	          0.22179235	          0.01000001	          0.00999999	          0.04929049	          0.11204028	          0.06917088	
